<mxfile host="app.diagrams.net" agent="Mozilla/5.0 (Windows NT 10.0; Win64; x64; rv:142.0) Gecko/20100101 Firefox/142.0" version="28.1.1">
  <diagram name="Page-1" id="T83TTpa8zFjE1lLUYpZm">
    <mxGraphModel dx="1826" dy="1587" grid="0" gridSize="10" guides="1" tooltips="1" connect="1" arrows="1" fold="1" page="0" pageScale="1" pageWidth="827" pageHeight="1169" math="0" shadow="0">
      <root>
        <mxCell id="0" />
        <mxCell id="1" parent="0" />
        <mxCell id="KzM7ihCwETdA7sU0UJMm-6" value="" style="edgeStyle=none;curved=1;rounded=0;orthogonalLoop=1;jettySize=auto;html=1;fontSize=12;startSize=8;endSize=8;" parent="1" source="KzM7ihCwETdA7sU0UJMm-1" target="KzM7ihCwETdA7sU0UJMm-5" edge="1">
          <mxGeometry relative="1" as="geometry" />
        </mxCell>
        <mxCell id="KzM7ihCwETdA7sU0UJMm-1" value="Does information gathered from step 3 align with expectations from step 2?" style="rounded=1;whiteSpace=wrap;html=1;fontSize=16;" parent="1" vertex="1">
          <mxGeometry x="91" y="-451" width="203" height="81" as="geometry" />
        </mxCell>
        <mxCell id="KzM7ihCwETdA7sU0UJMm-2" value="" style="endArrow=classic;html=1;rounded=0;fontSize=12;startSize=8;endSize=8;curved=1;exitX=0;exitY=0.5;exitDx=0;exitDy=0;dashed=1;" parent="1" source="KzM7ihCwETdA7sU0UJMm-1" edge="1">
          <mxGeometry width="50" height="50" relative="1" as="geometry">
            <mxPoint x="175" y="-75" as="sourcePoint" />
            <mxPoint x="-32" y="-410" as="targetPoint" />
          </mxGeometry>
        </mxCell>
        <mxCell id="KzM7ihCwETdA7sU0UJMm-3" value="Return to step 2" style="rhombus;whiteSpace=wrap;html=1;fontSize=16;" parent="1" vertex="1">
          <mxGeometry x="-124" y="-460" width="91" height="106" as="geometry" />
        </mxCell>
        <mxCell id="KzM7ihCwETdA7sU0UJMm-4" value="no" style="text;html=1;strokeColor=none;fillColor=none;align=center;verticalAlign=middle;whiteSpace=wrap;rounded=0;fontSize=16;" parent="1" vertex="1">
          <mxGeometry x="-12" y="-451" width="60" height="30" as="geometry" />
        </mxCell>
        <mxCell id="KzM7ihCwETdA7sU0UJMm-9" value="" style="edgeStyle=none;curved=1;rounded=0;orthogonalLoop=1;jettySize=auto;html=1;fontSize=12;startSize=8;endSize=8;" parent="1" source="KzM7ihCwETdA7sU0UJMm-5" target="KzM7ihCwETdA7sU0UJMm-8" edge="1">
          <mxGeometry relative="1" as="geometry" />
        </mxCell>
        <mxCell id="KzM7ihCwETdA7sU0UJMm-5" value="Gather all identified hazards from Step 2" style="whiteSpace=wrap;html=1;fontSize=16;rounded=1;" parent="1" vertex="1">
          <mxGeometry x="118" y="-304" width="151" height="60" as="geometry" />
        </mxCell>
        <mxCell id="KzM7ihCwETdA7sU0UJMm-7" value="Yes" style="text;html=1;strokeColor=none;fillColor=none;align=center;verticalAlign=middle;whiteSpace=wrap;rounded=0;fontSize=16;" parent="1" vertex="1">
          <mxGeometry x="195" y="-352" width="60" height="30" as="geometry" />
        </mxCell>
        <mxCell id="KzM7ihCwETdA7sU0UJMm-12" value="" style="edgeStyle=none;curved=1;rounded=0;orthogonalLoop=1;jettySize=auto;html=1;fontSize=12;startSize=8;endSize=8;" parent="1" source="KzM7ihCwETdA7sU0UJMm-8" target="KzM7ihCwETdA7sU0UJMm-11" edge="1">
          <mxGeometry relative="1" as="geometry" />
        </mxCell>
        <mxCell id="KzM7ihCwETdA7sU0UJMm-8" value="Group by requirement" style="shape=process;whiteSpace=wrap;html=1;backgroundOutline=1;fontSize=16;" parent="1" vertex="1">
          <mxGeometry x="133" y="-197" width="119" height="60" as="geometry" />
        </mxCell>
        <mxCell id="KzM7ihCwETdA7sU0UJMm-10" value="&lt;p style=&quot;line-height: 20%;&quot;&gt;&lt;/p&gt;&lt;h1 style=&quot;line-height: 100%; font-size: 12px;&quot;&gt;&lt;font style=&quot;font-size: 12px;&quot;&gt;Sample Requirements&lt;br&gt;&lt;/font&gt;&lt;/h1&gt;&lt;p style=&quot;line-height: 60%; font-size: 12px;&quot;&gt;&lt;font style=&quot;font-size: 12px;&quot;&gt;Weather considerations, high risk:&lt;/font&gt;&lt;/p&gt;&lt;p style=&quot;line-height: 60%; font-size: 12px;&quot;&gt;&lt;font style=&quot;font-size: 12px;&quot;&gt;Weather considerations, low risk:&lt;/font&gt;&lt;/p&gt;&lt;p style=&quot;line-height: 60%; font-size: 12px;&quot;&gt;&lt;font style=&quot;font-size: 12px;&quot;&gt;Object likelihood, high:&lt;/font&gt;&lt;/p&gt;&lt;p style=&quot;line-height: 60%; font-size: 12px;&quot;&gt;&lt;font style=&quot;font-size: 12px;&quot;&gt;Object danger, high:&lt;/font&gt;&lt;/p&gt;&lt;p style=&quot;line-height: 60%; font-size: 12px;&quot;&gt;&lt;font style=&quot;font-size: 12px;&quot;&gt;Contextual Objects of Interest:&lt;/font&gt;&lt;/p&gt;&lt;p style=&quot;line-height: 60%; font-size: 12px;&quot;&gt;&lt;font style=&quot;font-size: 12px;&quot;&gt;Sub-classification:&lt;/font&gt;&lt;/p&gt;&lt;p style=&quot;line-height: 60%; font-size: 12px;&quot;&gt;&lt;font style=&quot;font-size: 12px;&quot;&gt;Every physical object has a shape/size&lt;/font&gt;&lt;/p&gt;&lt;p style=&quot;line-height: 60%; font-size: 12px;&quot;&gt;&lt;font style=&quot;font-size: 12px;&quot;&gt;Each weather type has a severity (what classifies as severe?)&lt;/font&gt;&lt;/p&gt;&lt;p style=&quot;line-height: 60%; font-size: 12px;&quot;&gt;&lt;font style=&quot;font-size: 12px;&quot;&gt;How does each classification effect performance?&lt;/font&gt;&lt;/p&gt;&lt;p style=&quot;line-height: 60%; font-size: 12px;&quot;&gt;&lt;font style=&quot;font-size: 12px;&quot;&gt;Visibility, top speed, required reaction.&lt;font style=&quot;font-size: 12px;&quot;&gt;&lt;br&gt;&lt;/font&gt;&lt;/font&gt;&lt;/p&gt;&lt;p&gt;&lt;/p&gt;" style="text;html=1;strokeColor=none;fillColor=none;spacing=5;spacingTop=-20;whiteSpace=wrap;overflow=hidden;rounded=0;fontSize=16;" parent="1" vertex="1">
          <mxGeometry x="278" y="-197" width="360" height="238" as="geometry" />
        </mxCell>
        <mxCell id="KzM7ihCwETdA7sU0UJMm-17" value="" style="edgeStyle=none;curved=1;rounded=0;orthogonalLoop=1;jettySize=auto;html=1;fontSize=12;startSize=8;endSize=8;" parent="1" source="KzM7ihCwETdA7sU0UJMm-11" target="KzM7ihCwETdA7sU0UJMm-15" edge="1">
          <mxGeometry relative="1" as="geometry" />
        </mxCell>
        <mxCell id="KzM7ihCwETdA7sU0UJMm-11" value="Sort requirement by severity" style="shape=process;whiteSpace=wrap;html=1;backgroundOutline=1;fontSize=16;" parent="1" vertex="1">
          <mxGeometry x="133" y="-74" width="119" height="60" as="geometry" />
        </mxCell>
        <mxCell id="KzM7ihCwETdA7sU0UJMm-18" style="edgeStyle=none;curved=1;rounded=0;orthogonalLoop=1;jettySize=auto;html=1;entryX=0.5;entryY=1;entryDx=0;entryDy=0;fontSize=12;startSize=8;endSize=8;" parent="1" source="KzM7ihCwETdA7sU0UJMm-15" target="KzM7ihCwETdA7sU0UJMm-3" edge="1">
          <mxGeometry relative="1" as="geometry">
            <Array as="points">
              <mxPoint x="-98" y="130" />
            </Array>
          </mxGeometry>
        </mxCell>
        <mxCell id="KzM7ihCwETdA7sU0UJMm-21" value="" style="edgeStyle=none;curved=1;rounded=0;orthogonalLoop=1;jettySize=auto;html=1;fontSize=12;startSize=8;endSize=8;" parent="1" source="KzM7ihCwETdA7sU0UJMm-15" target="KzM7ihCwETdA7sU0UJMm-20" edge="1">
          <mxGeometry relative="1" as="geometry" />
        </mxCell>
        <mxCell id="KzM7ihCwETdA7sU0UJMm-15" value="Can all requirements fit into ODM?" style="rounded=1;whiteSpace=wrap;html=1;fontSize=16;" parent="1" vertex="1">
          <mxGeometry x="133.5" y="46" width="120" height="60" as="geometry" />
        </mxCell>
        <mxCell id="KzM7ihCwETdA7sU0UJMm-19" value="No" style="text;html=1;strokeColor=none;fillColor=none;align=center;verticalAlign=middle;whiteSpace=wrap;rounded=0;fontSize=16;" parent="1" vertex="1">
          <mxGeometry x="-18" y="16" width="60" height="30" as="geometry" />
        </mxCell>
        <mxCell id="KzM7ihCwETdA7sU0UJMm-25" value="" style="edgeStyle=none;curved=1;rounded=0;orthogonalLoop=1;jettySize=auto;html=1;fontSize=12;startSize=8;endSize=8;" parent="1" source="KzM7ihCwETdA7sU0UJMm-20" edge="1">
          <mxGeometry relative="1" as="geometry">
            <mxPoint x="347" y="196" as="targetPoint" />
          </mxGeometry>
        </mxCell>
        <mxCell id="KzM7ihCwETdA7sU0UJMm-20" value="Sort Classifications into physical and Digital" style="shape=process;whiteSpace=wrap;html=1;backgroundOutline=1;fontSize=16;" parent="1" vertex="1">
          <mxGeometry x="103" y="166" width="180" height="60" as="geometry" />
        </mxCell>
        <mxCell id="KzM7ihCwETdA7sU0UJMm-22" value="Yes" style="text;html=1;strokeColor=none;fillColor=none;align=center;verticalAlign=middle;whiteSpace=wrap;rounded=0;fontSize=16;" parent="1" vertex="1">
          <mxGeometry x="206" y="121" width="60" height="30" as="geometry" />
        </mxCell>
        <mxCell id="KzM7ihCwETdA7sU0UJMm-27" value="" style="edgeStyle=none;curved=1;rounded=0;orthogonalLoop=1;jettySize=auto;html=1;fontSize=12;startSize=8;endSize=8;" parent="1" edge="1">
          <mxGeometry relative="1" as="geometry">
            <mxPoint x="484" y="196" as="sourcePoint" />
            <mxPoint x="587" y="196" as="targetPoint" />
          </mxGeometry>
        </mxCell>
        <mxCell id="KzM7ihCwETdA7sU0UJMm-28" value="Continue to failure management" style="rounded=0;whiteSpace=wrap;html=1;fontSize=16;" parent="1" vertex="1">
          <mxGeometry x="592" y="166" width="120" height="60" as="geometry" />
        </mxCell>
        <mxCell id="KzM7ihCwETdA7sU0UJMm-31" value="&lt;p style=&quot;line-height: 70%;&quot;&gt;&lt;font style=&quot;font-size: 10px;&quot;&gt;This part is complicated since ultimately we&#39;re aiming for out of ODM operation, so we acknowledge that our ODM is limited and doesn&#39;t cover all scenarios, however, if the ODM doesn&#39;t cover the typical operating scenarios of our scope, we can&#39;t really call the concept sound, so we need to know what our typical responses are so we can understand how to react when these responses fail.&lt;/font&gt;&lt;/p&gt;&lt;p style=&quot;line-height: 70%;&quot;&gt;&lt;font style=&quot;font-size: 10px;&quot;&gt;At this point in the methodology, the technology has not been decided, so this is essentially creating a list of requirements for tech.&lt;br&gt;&lt;/font&gt;&lt;/p&gt;" style="text;html=1;strokeColor=none;fillColor=none;align=center;verticalAlign=middle;whiteSpace=wrap;rounded=0;fontSize=16;" parent="1" vertex="1">
          <mxGeometry x="304" y="260" width="268" height="134" as="geometry" />
        </mxCell>
        <mxCell id="KzM7ihCwETdA7sU0UJMm-33" value="Create response sheet for high severity hazards" style="shape=process;whiteSpace=wrap;html=1;backgroundOutline=1;fontSize=16;" parent="1" vertex="1">
          <mxGeometry x="346" y="159.5" width="184" height="73" as="geometry" />
        </mxCell>
        <mxCell id="KzM7ihCwETdA7sU0UJMm-34" value="&lt;p style=&quot;line-height: 110%; font-size: 10px;&quot;&gt;&lt;font style=&quot;font-size: 10px;&quot;&gt;In traditional AV applications, the high severity hazard response is to concede control to humans (&lt;font style=&quot;font-size: 10px;&quot;&gt;Autonomous Vehicles: Disengagements, Accidents and Reaction Times Dixt et al) however in FAO systems that is not a possibility, a paper by Lee et al (Adaptive Fault Detection and Emergency Control&lt;br&gt;of Autonomous Vehicles for Fail-Safe Systems&lt;br&gt;Using a Sliding Mode Approach) suggests that the role of a failed system is to mitigate damage and then essentially shut down, an exploration in the railway space does not seem to have been considered as of yet, so much to discuss in Failure management&lt;br&gt;&lt;/font&gt;&lt;/font&gt;&lt;/p&gt;" style="text;html=1;strokeColor=none;fillColor=none;align=center;verticalAlign=middle;whiteSpace=wrap;rounded=0;fontSize=16;" parent="1" vertex="1">
          <mxGeometry x="255.5" y="416" width="365" height="98" as="geometry" />
        </mxCell>
      </root>
    </mxGraphModel>
  </diagram>
</mxfile>
